<svg id="Livello_1" data-name="Livello 1" xmlns="http://www.w3.org/2000/svg" viewBox="0 0 179.68 342.02"><defs><style>.cls-1{fill:#ffc200;}</style></defs><title>logo</title><path class="cls-1" d="M277.79,251.18c2.69.64,5.71.89,8.36,1.65,7.34,2.12,14.89,3.75,21.91,6.65,11.51,4.75,23.16,9.4,33.35,16.82,2.69,2,5.33,4,7.86,6.16,4.72,4,5.28,5.77,4.38,12.47a13.35,13.35,0,0,1-7.47,1.82c-13.83,0-27.67.26-41.49-.08a268.55,268.55,0,0,1-28.35-2.13c-7.8-1-14.61,4.95-14.69,13.17-.08,8.83-.35,17.65-.38,26.48q-.22,52.23-.34,104.47c0,1,0,2,0,3,.32,7,4.53,11.9,11.36,13.23a26.71,26.71,0,0,0,5,.45q17.25.06,34.49,0c1.62,0,3.23-.31,5.14-.51V372.58l5.15-4,.21-4.69-3.09-4.16c-.92-7.46-2-15-10.61-18.26v-4.77H347.8c.1,1.53.18,2.82.25,3.91-.4.47-.56.83-.83,1-5.79,2.8-8.67,7.53-9.24,13.82-.28,3.06-1.1,5.89-3.72,7.91v5.2l4.7,3.88v81.11l10.9,1.47c1,3.79,1.13,30.7.2,36.14l-9.7,2.39c-.43,1.87-1.35,4.06-1.36,6.25-.05,22.5,0,45,.11,67.48a6.62,6.62,0,0,0,.43,1.37c15.59,1.41,31.29.31,46.87-1.25,2.41,5.37,2.45,9.85.07,15.41-15-1.48-30.24-3.07-45.87-1.87-.69,3.49-1.36,6.86-2.07,10.43-6.32,3.05-12.66,1.57-18.82.52-3.52-3.26-1-8.05-3.69-11.83-22.38.49-45-1.07-67.31,2.32-5.42-4-5.78-7-1.68-14.77,23,2.88,46.23.83,69.76,1.46V493.19c-3.47-.74-7.12-1.65-10.82-2.28-8.64-1.49-17.27-.12-25.89.35-11.39.61-22.78.08-33.59-3.53-18.33-6.12-29.53-19.28-34.31-37.84-2.38-9.22-2.94-18.72-3.29-28.21a54.71,54.71,0,0,0-.34-6v-23.2a44,44,0,0,0,.33-5.73c.39-19.26.69-38.52,1.05-57.79.24-13.14,1.31-26.18,5.05-38.89,6.2-21,19.61-34.16,41.4-38.3.6-.12,1-.1,2-.32C265,251.45,270.12,250.89,277.79,251.18Z" transform="translate(-208.56 -251.1)"/></svg>